<?xml version="1.0" encoding="utf-8"?>
<!-- Generator: Adobe Illustrator 27.5.0, SVG Export Plug-In . SVG Version: 6.00 Build 0)  -->
<svg version="1.1" xmlns="http://www.w3.org/2000/svg" xmlns:xlink="http://www.w3.org/1999/xlink" x="0px" y="0px"
	 viewBox="0 0 500 500" style="enable-background:new 0 0 500 500;" xml:space="preserve">
<g id="BACKGROUND">
	<rect style="fill:#FFFFFF;" width="500" height="500"/>
</g>
<g id="OBJECTS">
	<g>
		<g>
			<g>
				<circle style="fill:#FFDCEC;" cx="101.681" cy="135.331" r="17.93"/>
				
					<ellipse transform="matrix(0.9279 -0.3729 0.3729 0.9279 -21.5093 60.7861)" style="fill:#FFDCEC;" cx="146.386" cy="85.998" rx="42.845" ry="42.845"/>
				<path style="fill:#FFDCEC;" d="M406.753,262.5c-3.726-6.811-9.166-13.105-17.133-16.372
					c-11.621-6.708-22.953-8.036-20.54-24.074c14.684-35.926,7.04-77.072-22.445-97.884c-35.716-25.211-93.51-23.377-143.979-6.768
					c-42.42,13.96-53.762,43.821-52.736,57.925c0.966,13.277,9.699,25.018-8.212,35.078
					c-24.257,10.567-67.196,60.479-22.099,107.529c23.824,24.856,21.098,33.436,19.446,49.995s13.177,53.078,69.521,43.493
					c56.345-9.585,60.059-8.078,79.888,1.578c19.83,9.656,55.621,18.269,80.694-1.578c42.261-33.454-2.275-77.113,18.075-86.49
					C408.922,314.94,417.597,282.321,406.753,262.5z"/>
				
					<ellipse transform="matrix(0.1615 -0.9869 0.9869 0.1615 -8.1567 741.7271)" style="fill:#FFDCEC;" cx="432.427" cy="375.664" rx="26.975" ry="26.975"/>
				<circle style="fill:#FFDCEC;" cx="80.36" cy="405.475" r="18.655"/>
			</g>
			<g>
				<g>
					<g>
						<path style="fill:#6DD6B4;" d="M277.923,90.873c3.407-1.13,6.815-2.26,10.222-3.39c1.52-0.504,0.869-2.919-0.665-2.411
							c-3.407,1.13-6.815,2.26-10.222,3.39C275.739,88.966,276.39,91.381,277.923,90.873L277.923,90.873z"/>
					</g>
				</g>
				<g>
					<g>
						<path style="fill:#6DD6B4;" d="M274.861,78.767c1.628-2.46,3.378-4.825,5.264-7.093c1.022-1.229-0.738-3.007-1.768-1.768
							c-2.022,2.431-3.91,4.962-5.655,7.599C271.812,78.85,273.976,80.104,274.861,78.767L274.861,78.767z"/>
					</g>
				</g>
				<g>
					<g>
						<path style="fill:#6DD6B4;" d="M260.272,68.607c0.146-2.072,0.41-4.121,0.798-6.162c0.299-1.572-2.11-2.246-2.411-0.665
							c-0.429,2.258-0.726,4.534-0.887,6.827C257.659,70.212,260.16,70.205,260.272,68.607L260.272,68.607z"/>
					</g>
				</g>
				<g>
					<g>
						<path style="fill:#6DD6B4;" d="M239.379,64.289c0.844,3.308,1.838,6.566,2.986,9.782c0.537,1.505,2.953,0.856,2.411-0.665
							c-1.147-3.215-2.142-6.473-2.986-9.782C241.393,62.067,238.981,62.727,239.379,64.289L239.379,64.289z"/>
					</g>
				</g>
				<g>
					<g>
						<path style="fill:#6DD6B4;" d="M222.581,72.01c1.42,1.726,2.84,3.453,4.26,5.179c1.023,1.243,2.783-0.534,1.768-1.768
							c-1.42-1.726-2.84-3.453-4.26-5.179C223.326,68.999,221.566,70.776,222.581,72.01L222.581,72.01z"/>
					</g>
				</g>
				<g>
					<g>
						<path style="fill:#6DD6B4;" d="M211.53,90.742c2.305,0.66,4.899,1.111,7.04,2.205c1.43,0.73,2.697-1.426,1.262-2.159
							c-2.362-1.207-5.1-1.73-7.638-2.457C210.645,87.888,209.983,90.299,211.53,90.742L211.53,90.742z"/>
					</g>
				</g>
			</g>
		</g>
		<g>
			<g>
				<g>
					<g>
						<path style="fill:#FFFFFF;" d="M73.746,324.012c0,0,19.164,22.456,36.449,25.281s21.946-5.508,25.053-11.158
							c3.107-5.65,7.426-22.174,7.426-22.174l-26.595-6.703c0,0,0.492,7.975-2.74,13.2c-3.231,5.226-17.355,2.395-29.854-8.054
							L73.746,324.012z"/>
						<g>
							<path d="M73.304,324.454c11.129,12.965,27.791,27.716,46.097,25.907c16.639-1.644,20.382-20.928,23.876-34.233
								c0.084-0.321-0.105-0.685-0.437-0.769c-8.865-2.234-17.73-4.469-26.595-6.703c-0.376-0.095-0.812,0.187-0.791,0.603
								c0.298,5.974-0.605,14.84-8.022,15.121c-8.556,0.324-17.159-5.277-23.505-10.416c-0.264-0.214-0.623-0.258-0.884,0
								c-3.246,3.202-6.493,6.405-9.739,9.607c-0.574,0.566,0.31,1.45,0.884,0.884c1.507-1.487,3.015-2.974,4.522-4.461
								c0.825-0.813,4.006-5.038,5.153-5.083c0.05-0.002,3.931,3.511,4.222,3.705c2.014,1.341,4.11,2.562,6.297,3.599
								c3.289,1.561,6.797,2.845,10.43,3.274c6.455,0.763,9.74-1.871,11.178-8.156c0.53-2.318-0.145-5.897,0.72-7.938
								c-0.475,1.121-0.94,0.179,0.243,0.728c0.921,0.428,2.143,0.54,3.12,0.786c5.72,1.442,11.441,2.884,17.161,4.326
								c1.405,0.354,3.749,0.487,4.991,1.258c0.325,0.202-0.099-1.194-0.319-0.08c-0.247,1.253-0.683,2.506-1.03,3.731
								c-1.87,6.594-3.668,13.567-7.195,19.499c-4.458,7.497-11.481,10.181-20.087,9.454c-15.646-1.322-29.581-14.081-39.407-25.528
								C73.663,322.959,72.782,323.846,73.304,324.454z"/>
						</g>
					</g>
					<g>
						<g>
							<g>
								<path style="fill:#FFFFFF;" d="M71.456,303.001l13.662,10.737L73.52,326.791l-12.503-13.444
									C61.017,313.347,70.456,302.215,71.456,303.001z"/>
								<g>
									<path style="fill:#644DBD;" d="M70.909,303.547c4.423,3.476,9.147,6.745,13.344,10.487
										c-0.319-0.284,0.884-0.994-0.659,0.257c-1.121,0.909-2.029,2.284-2.986,3.361c-2.033,2.288-5.688,5.102-6.992,7.869
										c-0.564,1.197,0.313,0.665,0.076,0.321c-0.742-1.079-1.89-2.033-2.776-2.985c-2.506-2.695-5.013-5.39-7.519-8.085
										c-0.428-0.461-1.76-2.389-1.786-1.433c-0.026,0.967,1.673-1.438,2.071-1.89c0.997-1.131,6.082-8.013,7.568-7.704
										c0.97,0.202,1.385-1.287,0.411-1.49c-1.826-0.38-4.049,2.665-5.051,3.704c-2.127,2.203-4.156,4.508-6.139,6.841
										c-0.278,0.327-0.304,0.766,0,1.093c4.167,4.481,8.335,8.963,12.502,13.444c0.272,0.293,0.822,0.304,1.093,0
										c3.866-4.351,7.732-8.702,11.598-13.053c0.252-0.283,0.344-0.823,0-1.093c-4.554-3.579-9.108-7.158-13.662-10.738
										C71.229,301.846,70.128,302.933,70.909,303.547z"/>
								</g>
							</g>
							<polygon style="fill:#644DBD;" points="84.478,313.17 80.543,310.142 69.546,322.518 73.52,326.791 							"/>
							<line style="fill:none;stroke:#644DBD;stroke-miterlimit:10;" x1="66.37" y1="302.289" x2="80.36" y2="314.72"/>
							<line style="fill:none;stroke:#644DBD;stroke-miterlimit:10;" x1="63.157" y1="305.905" x2="76.673" y2="317.914"/>
							<line style="fill:none;stroke:#644DBD;stroke-miterlimit:10;" x1="60.178" y1="309.258" x2="73.693" y2="321.267"/>
						</g>
						<g>
							<g>
								<path style="fill:#FFFEFD;" d="M72.325,299.044l-15.363-17.649c0,0-1.784-3.055-4.001-1.056
									c-2.217,1.999-10.637,8.767-26.977,26.47c-0.656,0.711-9.771,10.757,6.796,8.462c2.52-0.349,18.398-4.238,18.398-4.238
									s5.963,4.108,8.011,5.178c1.058,0.553,1.352,0.761,4.175-2.317c3.507-3.824,7.945-8.346,10.276-12.359
									C73.933,301.03,73.656,300.573,72.325,299.044z"/>
								<g>
									<path style="fill:#FF84B5;" d="M73.15,298.219c-5.164-5.932-10.012-12.731-15.707-18.116
										c-2.991-2.828-5.104-0.775-7.633,1.439c-4.52,3.958-8.867,8.105-13.105,12.363c-4.51,4.53-9.939,9.041-13.411,14.464
										c-1.379,2.155-2.482,5.065-0.238,7.046c3.354,2.961,9.862,1.084,13.751,0.221c2.984-0.662,5.957-1.375,8.929-2.087
										c1.244-0.298,2.516-0.548,3.745-0.903c0.946-0.274,2.369-0.131,1.247-0.509c4.196,1.415,7.552,7.969,11.989,4.096
										c3.772-3.292,7.381-7.584,10.302-11.65C75.065,301.736,75.393,300.892,73.15,298.219c-0.966-1.152-2.61,0.506-1.65,1.65
										c2.215,2.64-5.065,8.983-6.77,10.832c-1.038,1.126-2.495,3.426-3.853,4.029c-1.289,0.572-1.198,0.367-2.545-0.368
										c-2.556-1.396-5.006-4.376-7.927-4.341c-3.744,0.045-8.23,1.992-11.877,2.832c-2.868,0.661-12.579,3.722-14.288,0.444
										c-0.939-1.801,1.513-4.4,2.57-5.663c4.65-5.558,10.048-10.68,15.24-15.732c2.998-2.917,6.058-5.769,9.203-8.527
										c2.014-1.766,3.108-2.706,5.3-0.679c5.47,5.059,10.05,11.545,14.949,17.172C72.488,301.004,74.133,299.348,73.15,298.219z"
										/>
								</g>
							</g>
							<g>
								<g>
									<g>
										<path style="fill:#FF84B5;" d="M44.79,304.6c-0.234,2.513-0.469,5.025-0.703,7.537c-0.139,1.495,2.195,1.485,2.334,0
											c0.234-2.513,0.469-5.025,0.703-7.537C47.263,303.106,44.928,303.115,44.79,304.6L44.79,304.6z"/>
									</g>
								</g>
								<g>
									<g>
										<path style="fill:#FF84B5;" d="M38.964,304.205c-0.158,3.061-0.317,6.122-0.475,9.183c-0.078,1.501,2.256,1.497,2.334,0
											c0.158-3.061,0.317-6.122,0.475-9.183C41.376,302.704,39.042,302.708,38.964,304.205L38.964,304.205z"/>
									</g>
								</g>
							</g>
							<path style="fill:#FF84B5;" d="M54.335,294.808c2.853-0.743,9.804,1.257,10.716,5.458c0.911,4.201-6.222,1.793-6.222,1.793
								s2.474,6.091-1.365,7.562C53.624,311.09,48.619,296.296,54.335,294.808z"/>
						</g>
					</g>
				</g>
				<g>
					<g>
						<path style="fill:#FFFFFF;" d="M123.797,381.919c0,0,22.184-19.491,28.399-27.824c6.214-8.333,9.322-13.841,10.593-21.75
							c1.271-7.909,0-18.502,0-18.502l28.953-1.934c0,0,1.695,16.057,0,26.509c-1.695,10.451-13.946,26.411-33.596,39.828
							c-19.65,13.417-27.842,16.739-27.842,16.739L123.797,381.919z"/>
						<g>
							<path d="M124.239,382.361c10.319-9.076,21.494-18.33,29.626-29.48c6.598-9.048,10.167-18.066,10.112-29.329
								c-0.01-2.113-0.103-4.226-0.256-6.334c-0.085-1.161,0.313-3.602-0.888-2.753c1.029-0.728,4.882-0.326,6.045-0.404
								c6.78-0.453,13.561-0.906,20.341-1.358c0.595-0.04,1.775-0.355,2.349-0.157c-0.628-0.217-0.371-0.929-0.342,0.508
								c0.088,4.302,0.608,8.593,0.64,12.908c0.084,11.253-2.096,19.684-8.965,28.695c-8.466,11.107-19.615,19.556-31.201,27.158
								c-4.708,3.089-9.479,6.095-14.386,8.86c-1.895,1.068-4.447,3.058-6.628,3.464c-1.166,0.217,0.38,0.55,0.006,0.228
								c-0.893-0.767-1.494-3-2.014-4.045c-1.447-2.906-2.894-5.812-4.341-8.718c-0.359-0.72-1.437-0.088-1.079,0.631
								c2.169,4.356,4.338,8.711,6.507,13.067c0.11,0.221,0.466,0.386,0.706,0.287c4.573-1.883,8.886-4.578,13.095-7.137
								c11.954-7.269,23.797-15.126,33.571-25.225c6.542-6.76,13.466-15.115,15.209-24.642c1.579-8.63,0.919-17.989,0.022-26.675
								c-0.033-0.318-0.26-0.649-0.625-0.625c-9.651,0.645-19.302,1.289-28.953,1.934c-0.307,0.021-0.666,0.271-0.625,0.625
								c0.831,7.179,1.097,14.847-0.719,21.883c-2.231,8.644-7.935,16.437-13.956,22.884c-7.553,8.087-15.829,15.562-24.134,22.867
								C122.75,382.009,123.637,382.89,124.239,382.361z"/>
						</g>
					</g>
					<g>
						<g>
							<g>
								<path style="fill:#FFFFFF;" d="M110.277,390.222l13.714-10.67l9.872,14.403l-16.062,8.892
									C117.801,402.846,109.273,391.002,110.277,390.222z"/>
								<g>
									<path style="fill:#644DBD;" d="M110.823,390.768c4.571-3.557,9.143-7.113,13.714-10.67
										c-0.404-0.052-0.809-0.104-1.213-0.156c2.489,3.632,4.978,7.263,7.468,10.895c0.467,0.681,1.174,2.254,1.857,2.71
										c1.228,0.819-0.125,0.366,0.619-0.146c-1.566,1.077-3.408,1.887-5.07,2.807c-2.44,1.35-4.879,2.701-7.318,4.052
										c-0.744,0.412-1.89,0.779-2.484,1.375c-1.051,1.055-0.96-0.26-0.033,0.676c-1.255-1.267-8.14-10.262-7.419-11.698
										c0.445-0.886-0.888-1.67-1.334-0.78c-0.841,1.675,1.614,4.602,2.404,5.861c1.614,2.573,3.349,5.077,5.121,7.544
										c0.248,0.345,0.663,0.495,1.057,0.277c5.354-2.964,10.708-5.928,16.062-8.892c0.346-0.192,0.51-0.718,0.277-1.057
										c-3.291-4.801-6.581-9.602-9.872-14.403c-0.307-0.448-0.803-0.475-1.213-0.156c-4.571,3.557-9.143,7.113-13.715,10.67
										C108.946,390.285,110.047,391.372,110.823,390.768z"/>
								</g>
							</g>
							<polygon style="fill:#644DBD;" points="123.286,380.035 119.399,383.125 128.758,396.78 133.863,393.954 							"/>
							<line style="fill:none;stroke:#644DBD;stroke-miterlimit:10;" x1="108.36" y1="394.986" x2="123.797" y2="384.405"/>
							<line style="fill:none;stroke:#644DBD;stroke-miterlimit:10;" x1="111.095" y1="398.975" x2="126.008" y2="388.754"/>
							<line style="fill:none;stroke:#644DBD;stroke-miterlimit:10;" x1="113.631" y1="402.676" x2="128.544" y2="392.454"/>
						</g>
						<g>
							<g>
								<path style="fill:#FFFEFD;" d="M106.647,388.424l-20.832,10.655c0,0-3.395,0.995-1.989,3.628
									c1.405,2.634,5.944,12.437,19.185,32.563c0.532,0.808,8.084,12.076,9.851-4.555c0.269-2.53,0.322-18.877,0.322-18.877
									s5.424-4.797,6.957-6.526c0.792-0.893,1.064-1.129-1.242-4.611c-2.865-4.325-6.184-9.722-9.517-12.953
									C108.962,387.342,108.452,387.501,106.647,388.424z"/>
								<g>
									<path style="fill:#FF84B5;" d="M106.058,387.417c-6.959,3.559-14.761,6.84-21.244,10.816
										c-3.348,2.053-2.354,4.369-0.824,7.35c2.513,4.895,5.205,9.689,8.025,14.413c3.518,5.892,6.876,12.457,11.353,17.683
										c1.769,2.064,4.536,4.357,7.247,2.526c3.688-2.491,3.473-9.33,3.572-13.281c0.076-3.056,0.102-6.113,0.128-9.169
										c0.012-1.383,0.108-2.814,0.028-4.196c-0.049-0.851,0.451-2.083-0.207-1.008c2.574-4.204,9.836-5.418,6.606-11.133
										c-2.409-4.263-5.368-8.583-8.542-12.321C109.939,386.432,109.194,385.884,106.058,387.417
										c-1.349,0.659-0.168,2.673,1.178,2.015c3.113-1.521,7.436,6.96,8.885,9.161c1.667,2.531,4.088,4.53,2.029,7.095
										c-1.756,2.186-5.418,3.701-6.134,6.45c-0.906,3.481-0.049,8.291-0.107,11.882c-0.053,3.306,0.717,12.446-2.505,14.189
										c-2.635,1.425-5.276-3.352-6.44-5.135c-3.855-5.904-7.599-11.885-11.129-17.989c-1.945-3.362-3.815-6.766-5.594-10.219
										c-1.212-2.354-1.458-3.596,0.878-5.143c6.157-4.078,13.535-6.923,20.118-10.29
										C108.573,388.748,107.394,386.733,106.058,387.417z"/>
								</g>
							</g>
							<g>
								<g>
									<g>
										<path style="fill:#FF84B5;" d="M105.372,416.479c2.382,0.833,4.764,1.666,7.146,2.5c1.421,0.497,2.031-1.757,0.62-2.25
											c-2.382-0.833-4.764-1.666-7.146-2.499C104.571,413.732,103.961,415.986,105.372,416.479L105.372,416.479z"/>
									</g>
								</g>
								<g>
									<g>
										<path style="fill:#FF84B5;" d="M103.583,422.038c2.932,0.892,5.865,1.783,8.798,2.675c1.44,0.438,2.056-1.814,0.62-2.25
											c-2.933-0.892-5.865-1.783-8.798-2.675C102.763,419.349,102.148,421.601,103.583,422.038L103.583,422.038z"/>
									</g>
								</g>
							</g>
							<path style="fill:#FF84B5;" d="M98.198,404.862c-0.033-2.948,3.583-9.212,7.88-9.084c4.297,0.128,0.24,6.471,0.24,6.471
								s6.508-0.933,7.01,3.148C113.829,409.478,98.264,410.768,98.198,404.862z"/>
						</g>
					</g>
				</g>
				<g>
					<g>
						<path style="fill:#FFFFFF;" d="M233.774,99.313c-0.63-0.515-1.185-1.25-1.915-2.302c-1.821-2.625-3.707-2.649-3.269-0.318
							c0.255,1.353,4.549,14.172,6.489,16.276s9.862,6.175,10.617-0.031c0.755-6.206-1.402-20.757-2.562-24.887
							c-1.245-4.431-2.545-3.471-2.619-2.23c0,0-0.766-1.694-1.424-1.69c-0.658,0.004-0.997,1.001-0.997,1.001
							s-0.334-1.1-0.801-1.04c-0.467,0.06-0.95,0.328-1.063,1.004c-0.114,0.675-0.163,1.176-0.163,1.176s-0.689-1.359-1.173-1.306
							c-0.484,0.054-0.93-0.072-0.928,2.139c0.001,2.212,0.276,7.456,0.207,8.671c-0.069,1.215-0.237,3.085-0.237,3.085
							L233.774,99.313"/>
						<path style="fill:none;stroke:#000000;stroke-width:0.75;stroke-miterlimit:10;" d="M238.874,105.143
							c0,0-0.377-4.507-2.565-4.826c-2.188-0.319-2.951-1.144-4.451-3.307c-1.821-2.625-3.707-2.649-3.269-0.318
							c0.255,1.353,4.549,14.172,6.489,16.276s9.862,6.175,10.617-0.031c0.755-6.206-1.394-20.759-2.562-24.887
							c-1.327-4.688-3.074-3.439-2.484-1.146c0.59,2.292,1.152,6.285,1.152,6.285"/>
						<path style="fill:none;stroke:#000000;stroke-width:0.75;stroke-miterlimit:10;" d="M233.88,99.322
							c0,0,0.514-3.945,0.253-7.092c-0.261-3.147-0.314-6.984,0.276-7.21c0.59-0.226,1.419-0.004,1.982,2.96
							c0.563,2.964,0.985,5.914,0.985,5.914"/>
						<path style="fill:none;stroke:#000000;stroke-width:0.75;stroke-miterlimit:10;" d="M239.378,93.733
							c0,0-1.213-8.336-1.404-8.925c-0.316-0.977-1.958-1.485-1.892,1.891"/>
						<path style="fill:none;stroke:#000000;stroke-width:0.5;stroke-miterlimit:10;" d="M240.447,86.485
							c0,0-1.147-4.445-2.377-1.117"/>
					</g>
					<g>
						<g>
							
								<ellipse transform="matrix(0.7338 -0.6794 0.6794 0.7338 -18.9631 194.2876)" style="fill:#FF84B5;" cx="238.431" cy="121.341" rx="10.663" ry="9.463"/>
							<g>
								<path style="fill:#FFFFFF;" d="M231.78,129.623l0.599-15.545c-0.125,0.107-0.255,0.206-0.377,0.319
									c-0.225,0.208-0.433,0.426-0.638,0.646l-0.53,13.762C231.132,129.104,231.448,129.376,231.78,129.623z"/>
								<path style="fill:#FFFFFF;" d="M235.774,131.26l2.127-19.796c-0.337,0.057-0.672,0.129-1.006,0.219l-2.082,19.383
									C235.128,131.147,235.449,131.211,235.774,131.26z"/>
								<path style="fill:#FFFFFF;" d="M240.397,130.884l2.491-19.006c-0.31-0.113-0.626-0.208-0.948-0.287l-2.563,19.559
									C239.718,131.079,240.058,130.99,240.397,130.884z"/>
								<path style="fill:#FFFFFF;" d="M244.643,128.468l2.278-13.55c-0.204-0.284-0.423-0.56-0.665-0.822
									c-0.051-0.056-0.109-0.102-0.162-0.156l-2.592,15.417C243.894,129.087,244.276,128.792,244.643,128.468z"/>
							</g>
						</g>
						<path style="fill:#FF84B5;" d="M172.432,162.176c0,0,23.476-1.362,33.434-10.684c9.957-9.322,14.272-14.961,18.008-22.724
							c3.735-7.763,6.588-14.488,15.437-12.138c8.85,2.349,12.739,13.889,7.231,32.108c-5.508,18.219-18.974,35.734-26.457,39.967
							c-7.483,4.233-25.447,12.573-25.447,12.573L172.432,162.176z"/>
					</g>
				</g>
				<g>
					<path style="fill:#FFFFFF;" d="M57.462,247.145c0,0-8.58,0-9.639,1.483c-1.059,1.483,2.966,2.118,6.885,2.224
						c3.919,0.106,12.076-0.635,12.076-0.635s-5.19,3.707-4.131,5.508c1.059,1.801,5.908-1.271,8.992-3.813
						c3.084-2.542,6.991-7.465,7.792-7.969l-8.786-8.661l-15.259,3.57l-3.799,0.692c0,0-3.378,0.691-3.353,1.175
						c0.024,0.484,0.909,1.109,0.909,1.109s-1.58,0.763-1.496,1.433c0.084,0.671,1.514,1.16,1.514,1.16s-1.942,0.676-1.73,1.541
						c0.212,0.865,2.031,1.488,3.143,1.487C51.688,247.447,57.462,247.145,57.462,247.145z"/>
					<path style="fill:none;stroke:#000000;stroke-miterlimit:10;" d="M57.462,247.145c0,0-8.58,0-9.639,1.483
						c-1.059,1.483,2.966,2.118,6.885,2.224c3.919,0.106,12.076-0.635,12.076-0.635s-5.19,3.707-4.131,5.508
						c1.059,1.801,5.908-1.271,8.992-3.813c3.084-2.542,6.991-7.465,7.792-7.969"/>
					<path style="fill:none;stroke:#000000;stroke-miterlimit:10;" d="M51.815,247.449c0,0-4.24,0.014-4.487-1.399
						s4.378-1.801,9.781-2.26"/>
					<path style="fill:none;stroke:#000000;stroke-miterlimit:10;" d="M55.626,240.918c0,0-7.79,0.52-8.055,2.175
						c-0.151,0.944,0.85,1.322,3.393,1.327"/>
					<path style="fill:none;stroke:#000000;stroke-miterlimit:10;" d="M71.162,235.281c0,0-10.522,2.648-16.525,3.707
						c-6.002,1.059-6.285,1.211-6.391,1.929c-0.106,0.719,0.794,1.034,1.573,0.864"/>
				</g>
			</g>
			<g>
				<g>
					<path style="fill:#6DD6B4;" d="M96.549,298.943c0,0,13.982,18.219,49.786,20.126c35.803,1.907,54.446-5.085,54.446-5.085
						s-5.331-55.347-14.106-71.315s-53.094-18.218-65.042,2.397S96.549,298.943,96.549,298.943z"/>
				</g>
				<g>
					<path style="fill:#FFFFFF;" d="M141.941,264.382c2.692,5.683,2.832,11.259,0.312,12.452c-2.52,1.194-6.746-2.446-9.438-8.129
						c-2.692-5.684-2.832-11.259-0.312-12.452C135.023,255.059,139.248,258.698,141.941,264.382z"/>
					<path style="fill:#FFFFFF;" d="M125.413,281.306c1.007,6.208-0.408,11.602-3.16,12.049c-2.753,0.447-5.801-4.224-6.808-10.432
						c-1.007-6.208,0.408-11.602,3.16-12.049C121.358,270.428,124.406,275.098,125.413,281.306z"/>
					<path style="fill:#FFFFFF;" d="M147.047,296.588c-3.145,5.446-7.651,8.731-10.066,7.337c-2.415-1.394-1.824-6.94,1.321-12.386
						c3.144-5.446,7.651-8.731,10.066-7.337C150.782,285.596,150.191,291.142,147.047,296.588z"/>
					<path style="fill:#FFFFFF;" d="M164.884,304.386c2.3,5.853,2.06,11.425-0.536,12.445c-2.595,1.02-6.564-2.899-8.863-8.752
						c-2.3-5.853-2.06-11.425,0.536-12.445C158.616,294.614,162.584,298.533,164.884,304.386z"/>
					<path style="fill:#FFFFFF;" d="M191.343,303.219c-1.575,6.089-5.04,10.458-7.74,9.76c-2.7-0.698-3.612-6.2-2.037-12.289
						c1.575-6.089,5.04-10.458,7.739-9.76C192.005,291.629,192.917,297.131,191.343,303.219z"/>
					<path style="fill:#FFFFFF;" d="M178.057,283.078c1.338,6.145,0.215,11.607-2.51,12.201c-2.725,0.594-6.018-3.907-7.357-10.052
						c-1.338-6.145-0.215-11.607,2.51-12.201C173.425,272.432,176.719,276.933,178.057,283.078z"/>
					<path style="fill:#FFFFFF;" d="M188.403,265.238c2.692,5.684,2.832,11.259,0.312,12.453c-2.52,1.194-6.746-2.446-9.438-8.129
						c-2.692-5.684-2.832-11.259-0.312-12.453C181.485,255.915,185.711,259.555,188.403,265.238z"/>
					<path style="fill:#FFFFFF;" d="M165.199,259.52c-0.74,6.245-3.585,11.042-6.354,10.714c-2.769-0.328-4.414-5.657-3.674-11.902
						c0.74-6.245,3.585-11.042,6.354-10.714C164.294,247.946,165.939,253.274,165.199,259.52z"/>
					<path style="fill:#FFFFFF;" d="M130.378,250.115c-3.145,5.446-7.651,8.731-10.066,7.337c-2.415-1.394-1.824-6.94,1.321-12.386
						s7.651-8.731,10.066-7.337C134.114,239.124,133.523,244.669,130.378,250.115z"/>
					<g>
						<path style="fill:#FFFFFF;" d="M110.791,290.891c-1.972-1.972-7.175,0.035-11.622,4.482c-0.818,0.818-1.552,1.662-2.195,2.506
							c-0.273,0.679-0.425,1.064-0.425,1.064s2.094,2.717,6.711,6.16c1.025-0.733,2.056-1.597,3.049-2.59
							C110.757,298.066,112.763,292.863,110.791,290.891z"/>
					</g>
					<g>
						<path style="fill:#FFFFFF;" d="M127.632,303.226c-2.789,0-5.049,5.098-5.049,11.387c0,0.075,0.004,0.148,0.005,0.223
							c3.017,0.978,6.326,1.846,9.936,2.549c0.099-0.889,0.157-1.814,0.157-2.772C132.681,308.324,130.421,303.226,127.632,303.226z
							"/>
					</g>
				</g>
				<g>
					<g>
						<path d="M96.107,299.385c9.733,12.512,28.594,17.978,43.464,19.733c14.795,1.746,30.242,1.282,44.977-0.87
							c5.482-0.801,11.176-1.729,16.4-3.661c0.748-0.277,0.424-1.485-0.332-1.205c-4.566,1.689-9.516,2.566-14.3,3.339
							c-14.24,2.302-29.071,2.715-43.432,1.484c-15.583-1.336-35.677-6.572-45.892-19.704
							C96.498,297.867,95.619,298.757,96.107,299.385L96.107,299.385z"/>
					</g>
				</g>
			</g>
			<g>
				<g>
					<g>
						<ellipse style="fill:#FF84B5;" cx="80.906" cy="236.305" rx="10.663" ry="9.463"/>
						<g>
							<path style="fill:#FFFFFF;" d="M70.4,237.864l11-11c-0.165-0.007-0.327-0.022-0.493-0.022c-0.306,0-0.607,0.018-0.907,0.041
								l-9.739,9.739C70.277,237.043,70.323,237.458,70.4,237.864z"/>
							<path style="fill:#FFFFFF;" d="M72.218,241.779l15.009-13.082c-0.285-0.187-0.581-0.361-0.887-0.523l-14.696,12.809
								C71.821,241.257,72.013,241.522,72.218,241.779z"/>
							<path style="fill:#FFFFFF;" d="M75.865,244.643l14.74-12.255c-0.151-0.293-0.318-0.578-0.501-0.854l-15.168,12.612
								C75.235,244.326,75.545,244.491,75.865,244.643z"/>
							<path style="fill:#FFFFFF;" d="M80.623,245.755l10.877-8.395c0.043-0.347,0.07-0.698,0.07-1.055
								c0-0.076-0.011-0.149-0.013-0.224l-12.375,9.552C79.653,245.701,80.133,245.743,80.623,245.755z"/>
						</g>
					</g>
					<path style="fill:#FF84B5;" d="M117.952,226.842c0,0,2.042,15.395,16.448,20.903c14.406,5.508,45.195,9.745,57.059,1.836
						c11.864-7.909,18.648-32.061,17.657-44.772c-0.991-12.711-7.86-27.74-16.018-34.405c-8.157-6.664-14.47-11.51-22.108-13.834
						c-7.638-2.324-30.8-5.713-57.353,20.556c-26.552,26.27-37.223,39.75-39.546,48.868c-2.323,9.117,3.39,19.177,13.135,17.921
						S107.436,238.282,117.952,226.842z"/>
				</g>
				<g>
					<g>
						<g>
							<path d="M77.464,241.36c2.615,3.09,7.827,3.443,11.488,3.095c6.342-0.602,11.979-3.505,17.174-7.033
								c15.089-10.25,26.993-25.365,34.746-41.76c0.342-0.723-0.735-1.359-1.079-0.631c-7.213,15.253-17.943,29.174-31.507,39.318
								c-4.243,3.174-8.939,6.247-14.053,7.799c-4.454,1.352-12.335,2.522-15.885-1.673
								C77.827,239.861,76.947,240.749,77.464,241.36L77.464,241.36z"/>
						</g>
					</g>
					<g>
						<g>
							<path d="M175.049,158.955c20.282,7.909,33.386,28.673,33.44,50.055c0.002,0.804,1.252,0.806,1.25,0
								c-0.056-21.992-13.539-43.141-34.358-51.26C174.631,157.457,174.306,158.665,175.049,158.955L175.049,158.955z"/>
						</g>
					</g>
					<g>
						<g>
							<path d="M207.444,195.808c7.088-2.505,13.907-6.494,19.343-11.685c0.583-0.557-0.302-1.44-0.884-0.884
								c-5.264,5.027-11.921,8.935-18.791,11.363C206.358,194.869,206.683,196.077,207.444,195.808L207.444,195.808z"/>
						</g>
					</g>
				</g>
				<g>
					<g>
						<path style="fill:#FFFFFF;" d="M152.627,177.419c0,0-3.755-5.779-5.491-5.435c-1.736,0.344-2.284,10.135-1.371,9.608
							C146.679,181.065,152.627,177.419,152.627,177.419z"/>
						<path style="fill:#FFFFFF;" d="M162.151,177.419c0,0,3.755-5.779,5.491-5.435c1.736,0.344,2.284,10.135,1.371,9.608
							C168.099,181.065,162.151,177.419,162.151,177.419z"/>
					</g>
					<g>
						<ellipse style="fill:#FFFFFF;" cx="157.446" cy="183.413" rx="12.967" ry="9.872"/>
					</g>
					<g>
						<path d="M165.801,180.604c0,0.456-0.37,0.826-0.826,0.826c-0.456,0-0.826-0.37-0.826-0.826c0-0.456,0.37-0.826,0.826-0.826
							C165.431,179.779,165.801,180.148,165.801,180.604z"/>
						<g>
							<circle cx="161.533" cy="182.407" r="0.307"/>
							<circle cx="161.584" cy="183.574" r="0.307"/>
							<path d="M162.802,182.892c0,0.169-0.137,0.307-0.307,0.307c-0.169,0-0.307-0.137-0.307-0.307
								c0-0.169,0.137-0.307,0.307-0.307C162.665,182.585,162.802,182.722,162.802,182.892z"/>
						</g>
						<g>
							<circle cx="153.897" cy="182.684" r="0.307"/>
							<path d="M153.538,183.85c0,0.169,0.137,0.307,0.307,0.307c0.169,0,0.307-0.137,0.307-0.307c0-0.169-0.137-0.307-0.307-0.307
								C153.676,183.544,153.538,183.681,153.538,183.85z"/>
							<circle cx="152.934" cy="183.168" r="0.307"/>
						</g>
						<circle cx="149.669" cy="180.788" r="0.826"/>
						<g>
							<path d="M156.436,184.679c-0.201,1.017-0.036,3.255,1.446,3.255c1.482,0,1.647-2.239,1.446-3.255
								c-0.049-0.25-0.432-0.144-0.382,0.105c0.144,0.73,0.106,2.753-1.064,2.753c-1.169,0-1.209-2.019-1.064-2.753
								C156.867,184.535,156.485,184.429,156.436,184.679L156.436,184.679z"/>
						</g>
						<g>
							<path style="fill:#FF84B5;" d="M159.086,181.866c0,0.469-0.534,0.848-1.192,0.848c-0.658,0-1.192-0.38-1.192-0.848
								c0-0.469,0.534-0.848,1.192-0.848C158.552,181.017,159.086,181.397,159.086,181.866z"/>
							<g>
								<path style="fill:#FF84B5;" d="M157.695,182.33c0,0.625,0,1.25,0,1.875c0,0.255,0.396,0.256,0.396,0c0-0.625,0-1.25,0-1.875
									C158.091,182.075,157.695,182.074,157.695,182.33L157.695,182.33z"/>
							</g>
						</g>
					</g>
				</g>
			</g>
			<g>
				<path style="fill:#644DBD;" d="M147.24,118.149c0,0-12.328,4.617-18.763,14.908c-6.436,10.291,1.088,19.99,6.254,21.802
					c5.167,1.813,17.222,3.173,23.114-1.269c5.892-4.441,3.748-31.091,1.829-34.807C157.755,115.067,148.509,117.061,147.24,118.149
					z"/>
				<path style="fill:#FFFFFF;stroke:#000000;stroke-miterlimit:10;" d="M177.956,106.046h-9.744
					c-6.478,0-11.779,6.035-11.779,13.411v15.105c0,0.426,0.022,0.846,0.057,1.262c-0.105,0.445-0.167,0.907-0.167,1.384v9.195
					v0.512v9.195c0,3.337,2.73,6.067,6.067,6.067h3.866c3.337,0,6.066-2.73,6.066-6.067v-8.137h5.634
					c6.478,0,11.779-6.035,11.779-13.411v-15.105C189.735,112.081,184.435,106.046,177.956,106.046z"/>
				<g>
					<path style="fill:#644DBD;" d="M155.609,126.248c0,0,9.554-3.174,12.451-9.338c2.898-6.164,2.175-7.493,2.175-7.493
						s5.385,7.373,13.896,9.185c7.025,1.496,6.739,0.458,7.433-1.178c0.635-1.496,1.064-11.904-9.606-18.31
						c-10.67-6.406-22.134-5.771-30.043,2.206c-7.909,7.977-6.942,20.546-4.283,23.688
						C150.292,128.15,153.796,129.905,155.609,126.248z"/>
					
						<ellipse transform="matrix(0.9273 -0.3743 0.3743 0.9273 -24.0767 61.5851)" style="fill:#644DBD;" cx="146.511" cy="92.777" rx="16.09" ry="16.09"/>
				</g>
				<g>
					<ellipse style="fill:#FFFFFF;" cx="151.916" cy="129.923" rx="7.758" ry="7.695"/>
					<g>
						<g>
							<path style="fill:#020202;" d="M156.8,130.939c0.06-1.017-0.191-2.121-0.659-3.02c-0.99-1.898-3.031-2.498-5.054-2.314
								c-0.875,0.08-0.883,1.456,0,1.376c1.651-0.15,3.277,0.215,3.977,1.865c0.273,0.643,0.402,1.394,0.36,2.093
								C155.372,131.824,156.748,131.82,156.8,130.939L156.8,130.939z"/>
						</g>
					</g>
				</g>
				<g>
					<g>
						<circle style="fill:#0C0C0C;" cx="172.432" cy="124.392" r="2.196"/>
						<path style="fill:#0C0C0C;" d="M184.616,124.07c0,1.035,0.839,1.875,1.875,1.875c1.036,0,1.875-0.84,1.875-1.875
							c0-1.035-0.839-1.875-1.875-1.875C185.455,122.195,184.616,123.035,184.616,124.07z"/>
					</g>
					<g>
						<path style="fill:#FFFDFD;" d="M182.519,133.057c0,0-1.104,3.217-3.438,3.437c-2.334,0.221-4.163-2.365-4.289-4.383
							L182.519,133.057z"/>
						<g>
							<path style="fill:#0C0C0C;" d="M181.98,132.909c-0.354,0.996-1.014,2.098-1.927,2.661c-2.308,1.423-4.474-1.378-4.702-3.459
								c-0.186,0.186-0.372,0.372-0.558,0.558c2.576,0.315,5.151,0.631,7.726,0.946c0.711,0.087,0.705-1.03,0-1.117
								c-2.576-0.315-5.151-0.631-7.726-0.946c-0.278-0.034-0.588,0.284-0.558,0.558c0.269,2.451,2.223,5.27,4.995,4.922
								c1.922-0.241,3.224-2.129,3.827-3.827C183.298,132.527,182.219,132.235,181.98,132.909z"/>
						</g>
					</g>
					<g>
						<path style="fill:#FF84B5;" d="M162.601,132.469c0,3.015,2.444,5.46,5.46,5.46c3.015,0,5.46-2.444,5.46-5.46
							c0-3.015-2.444-5.46-5.46-5.46C165.045,127.009,162.601,129.454,162.601,132.469z"/>
						<path style="fill:#FF84B5;" d="M188.271,128.769c0.332,0,0.654,0.043,0.964,0.117v5.663c0,0.846-0.032,1.665-0.203,2.462
							c-0.228,0.039-0.522,0.07-0.761,0.07c-2.295,0-4.156-1.861-4.156-4.156C184.116,130.63,185.976,128.769,188.271,128.769z"/>
					</g>
					<polygon style="fill:#FF84B5;" points="180.051,122.195 179.601,129.675 183.173,127.499 					"/>
				</g>
			</g>
		</g>
		<g>
			<g>
				<g>
					<g>
						<g>
							<path style="fill:#FFFFFF;" d="M337.961,406.527l-1.421-17.318l-17.285,2.474l4.318,17.844
								C323.574,409.527,338.065,407.794,337.961,406.527z"/>
							<g>
								<path d="M338.734,406.527c-0.474-5.773-0.947-11.546-1.421-17.318c-0.045-0.547-0.455-0.82-0.978-0.745
									c-5.762,0.825-11.523,1.649-17.285,2.474c-0.422,0.06-0.628,0.587-0.54,0.95c1.439,5.948,2.879,11.896,4.318,17.844
									c0.072,0.296,0.421,0.606,0.745,0.567c2.887-0.348,5.773-0.747,8.636-1.255c1.515-0.269,5.874-0.424,6.497-2.312
									c0.312-0.947-1.179-1.352-1.49-0.411c-0.417,1.262-12.031,2.627-13.584,2.426c1.145,0.148,0.479,0.735,0.383-0.683
									c-0.069-1.02-0.518-2.143-0.759-3.137c-0.673-2.783-1.347-5.567-2.021-8.35c-0.408-1.685-0.809-3.371-1.223-5.054
									c0.319,1.3-1.069,0.545,0.52,0.752c0.992,0.129,2.434-0.348,3.411-0.488c4.268-0.611,8.536-1.222,12.804-1.833
									c-0.326-0.248-0.652-0.497-0.978-0.745c0.474,5.773,0.947,11.546,1.421,17.318
									C337.27,407.511,338.815,407.52,338.734,406.527z"/>
							</g>
						</g>
						<g>
							<g>
								<path style="fill:#6DD6B4;" d="M341.741,407.984l6.247,22.549c0,0,1.227,4.096-1.663,4.843
									c-2.89,0.747-12.024,4.291-35.803,8.156c-0.954,0.155-19.525,4.502-8.474-8.05c1.681-1.909,18.027-16.472,18.027-16.472
									s-0.137-7.24,0.1-9.538c0.123-1.187,0.112-1.548,4.236-2.205c5.124-0.816,11.343-2.023,15.977-1.754
									C340.971,405.548,341.199,406.031,341.741,407.984z"/>
							</g>
							<g>
								<g>
									<g>
										<path d="M323.151,425.906c-2.225-1.19-4.45-2.381-6.675-3.571c-1.324-0.708-2.504,1.306-1.178,2.015
											c2.225,1.19,4.45,2.381,6.675,3.571C323.297,428.63,324.477,426.616,323.151,425.906L323.151,425.906z"/>
									</g>
								</g>
								<g>
									<g>
										<path d="M318.452,431.506c-2.641-1.556-5.281-3.113-7.922-4.669c-1.297-0.764-2.472,1.252-1.178,2.015
											c2.641,1.556,5.281,3.113,7.922,4.669C318.571,434.285,319.747,432.269,318.452,431.506L318.452,431.506z"/>
									</g>
								</g>
							</g>
							<path style="fill:#FFFFFF;" d="M328.282,413.027c-2.354,2.444-2.281,6.333,0.163,8.687c2.444,2.354,6.333,2.281,8.687-0.163
								c2.354-2.444,2.281-6.333-0.163-8.687C334.525,410.51,330.635,410.583,328.282,413.027z"/>
						</g>
					</g>
					<g>
						<path style="fill:#644DBD;" d="M315.747,389.209c0,0-18.078-48.39-20.903-66.468c-2.825-18.078,13.924-58.754,27.3-75.137
							c13.376-16.383,32.019-2.019,36.539,6.335c4.52,8.354-4.333,35.176-8.098,40.125c-3.766,4.95-19.498,14.205-21.975,25.335
							c-3.823,17.176,5.781,61.249,7.758,66.899C338.345,391.947,316.27,390.62,315.747,389.209z"/>
						<g>
							<path style="fill:#FFFFFF;" d="M343.393,390.735c0.161,1.088-0.598,2.11-1.686,2.271l-28.053,4.143
								c-1.088,0.161-2.11-0.598-2.271-1.686l-1.149-7.779c-0.161-1.088,0.598-2.11,1.686-2.271l28.053-4.143
								c1.088-0.161,2.11,0.598,2.271,1.686L343.393,390.735z"/>
							<g>
								<path style="fill:#644DBD;" d="M342.768,390.735c-0.313,2.619-6.502,2.447-8.212,2.7c-4.102,0.606-8.204,1.212-12.307,1.818
									c-2.29,0.338-6.083,1.709-8.371,1.236c-2.587-0.534-3.781-7.808-2.383-9.649c1.351-1.779,5.483-1.547,7.576-1.856
									c4.102-0.606,8.204-1.212,12.307-1.818c2.31-0.341,6.07-1.712,8.371-1.236c3.029,0.626,2.671,6.464,3.041,8.972
									c0.117,0.793,1.322,0.456,1.205-0.332c-0.361-2.441-0.036-6.873-1.63-8.885c-1.168-1.475-2.968-0.956-4.547-0.723
									c-7.932,1.171-15.863,2.343-23.795,3.514c-1.671,0.247-3.557,0.246-4.28,2.089c-0.764,1.947,0.268,7.231,1.025,8.989
									c1.908,4.436,11.103,1.01,14.642,0.488c4.533-0.669,9.067-1.339,13.6-2.009c2.458-0.363,4.653-0.332,5.007-3.296
									C344.114,389.938,342.863,389.945,342.768,390.735z"/>
							</g>
						</g>
					</g>
				</g>
				<g>
					<path style="fill:#FFFFFF;" d="M432.019,255.089c-0.318-4.873-1.907-25.316-6.508-25.74c-4.601-0.424-10.784,2.86-10.784,2.86
						s-1.775,13.134-1.775,16.736c0,3.602,0.373,5.403,1.775,4.449c1.403-0.953,2.78-6.674,2.78-6.674s1.801,13.771,3.496,14.618
						c1.538,0.769,2.112,0.155,1.494-7.3c0.306,1.928,0.747,4.252,1.238,5.389c0.922,2.136,0.817,2.467,1.558,2.335
						c0.742-0.132,0.811-3.548,0.763-4.475c-0.048-0.927,0.171,0.451,0.402,1.324c0.23,0.873,0.876,3.016,1.445,3.176
						c0.569,0.16,0.91-0.952,0.939-1.852c0.029-0.9-0.148-4.404-0.148-4.404s0-0.006,0-0.007c0.441,2.531,0.986,4.921,1.808,5.073
						C431.878,260.852,432.337,259.962,432.019,255.089z"/>
					<path style="fill:none;stroke:#000000;stroke-miterlimit:10;" d="M422.274,251.563c0.953,9.821,0.424,10.623-1.271,9.776
						c-1.695-0.847-3.496-14.618-3.496-14.618s-1.377,5.72-2.78,6.673c-1.403,0.953-1.775-0.848-1.775-4.449
						c0-3.602,1.775-16.736,1.775-16.736s6.183-3.284,10.784-2.86c4.601,0.424,6.19,20.868,6.508,25.74
						c0.318,4.873-0.141,5.763-1.518,5.508c-1.377-0.254-1.977-6.779-2.613-9.745"/>
					<path style="fill:none;stroke:#000000;stroke-miterlimit:10;" d="M425.512,250.958c0,0,1.225,9.558,0,10.658
						c-1.225,1.1-1.923-2.744-2.951-6.807"/>
					<path style="fill:none;stroke:#000000;stroke-miterlimit:10;" d="M428.405,253.627c0,0,1.046,6.782,0,7.988
						c-1.047,1.206-2.22-3.296-2.456-6.085"/>
				</g>
				<g>
					<g>
						<path style="fill:#FFFFFF;" d="M270.115,88.325c-1.695-0.212-5.438,8.711-5.438,8.711c-0.099,0.044-0.183,0.09-0.278,0.135
							c-0.193-0.965-0.421-1.995-0.527-2.958c-0.204-1.867-0.942-9.309-1.105-11.605c-0.163-2.296-0.824-2.405-1.586-2.488
							c-0.762-0.084-1.273,1.789-1.273,1.789l-0.459-0.805c0,0-0.479-0.43-1.375-0.254s-1.07,1.684-1.07,1.684l-0.801-0.78
							c0,0-0.732,0.131-1.36,0.73c-0.23,0.22-0.467,1.592-0.675,3.237l-0.084-0.238c-0.565-0.793-1.766-0.337-2.33,2.837
							c-0.565,3.174-0.141,19.282,0.865,23.672c1.006,4.389,11.928,0.566,13.116-0.294c1.188-0.86,2.685-6.073,4.38-13.559
							C271.81,90.655,271.81,88.537,270.115,88.325z"/>
						<path style="fill:none;stroke:#000000;stroke-width:0.75;stroke-miterlimit:10;" d="M260.087,102.519
							c0,0-0.283-3.34,4.59-5.483c0,0,3.743-8.923,5.438-8.711c1.695,0.212,1.695,2.33,0,9.816
							c-1.695,7.485-3.192,12.699-4.38,13.559s-12.111,4.683-13.116,0.294c-1.006-4.389-1.43-20.498-0.865-23.672
							c0.565-3.174,1.765-3.631,2.33-2.837"/>
						<path style="fill:none;stroke:#000000;stroke-width:0.75;stroke-miterlimit:10;" d="M253.32,94.751
							c0,0,0.925-11.645,1.613-12.429c0.883-1.006,2.002-0.667,2.072,0.957"/>
						<path style="fill:none;stroke:#000000;stroke-width:0.75;stroke-miterlimit:10;" d="M256.345,94.751
							c0,0,0-12.923,1.483-13.771c1.483-0.847,1.765,0,1.977,1.624"/>
						<path style="fill:none;stroke:#000000;stroke-width:0.75;stroke-miterlimit:10;" d="M258.887,94.263
							c0,0-0.071-12.929,1.907-13.918c1.977-0.989,1.907,1.43,2.118,4.317c0.212,2.886,1.271,12.374,1.271,12.374"/>
					</g>
					<g>
						<path style="fill:#FFFFFF;" d="M312.145,186.235c0,0-28.882-0.966-42.723-19.514s-18.926-40.779-16.948-50.566
							c1.977-9.787,11.299-10.287,14.971-7.778c3.672,2.51,12.429,25.108,23.163,31.604c10.734,6.497,19.794,7.453,36.284,6.685
							C343.381,145.898,319.558,189.553,312.145,186.235z"/>
						<path style="fill:#6DD6B4;" d="M269.405,110.708c-0.758-1.137-1.416-1.959-1.961-2.331c-3.672-2.51-12.994-2.01-14.971,7.778
							c-0.115,0.57-0.204,1.186-0.271,1.836C254.751,115.722,260.117,112.094,269.405,110.708z"/>
						<g>
							<path d="M312.145,185.625c-13.74-0.514-29.136-5.557-38.919-15.429c-8.593-8.671-14.428-21.285-17.819-32.869
								c-2.205-7.531-6.052-21.662,1.402-27.568c2.891-2.291,7.869-3.076,10.809-0.41c2.473,2.242,3.991,6.216,5.617,9.088
								c4.141,7.314,8.489,15.643,15.306,20.855c6.546,5.004,15.013,7.341,23.111,7.975c5.259,0.412,10.663-0.505,15.862,0.003
								c3.081,0.301,4.315,2.267,4.455,5.271c0.326,7.018-3.709,14.647-7.119,20.517c-1.743,3.001-7.838,14.263-12.542,12.589
								c-0.742-0.264-1.061,0.915-0.325,1.178c4.033,1.435,8.316-4.859,10.213-7.445c4.458-6.077,8.207-13.214,10.108-20.537
								c0.986-3.798,2.192-10.293-2.386-12.316c-3.929-1.736-9.96-0.167-14.143-0.277c-6.604-0.175-13.139-1.131-19.217-3.822
								c-11.111-4.92-16.786-14.919-22.539-25.084c-3.039-5.371-5.388-11.673-12.674-10.764
								c-9.249,1.153-10.423,11.217-9.643,18.726c1.245,11.996,5.935,23.813,12.096,34.101c6.712,11.209,15.484,18.906,27.861,23.29
								c6.499,2.302,13.567,3.892,20.487,4.151C312.93,186.875,312.929,185.654,312.145,185.625z"/>
						</g>
					</g>
				</g>
				<g>
					<g>
						<g>
							<path style="fill:#FFFFFF;" d="M432.946,315.159l-17.251,2.082l3.134,17.177l17.666-4.998
								C436.494,329.421,434.208,315.007,432.946,315.159z"/>
							<g>
								<path d="M432.946,314.387c-5.75,0.694-11.501,1.388-17.251,2.082c-0.527,0.064-0.843,0.44-0.745,0.978
									c1.044,5.726,2.089,11.452,3.134,17.178c0.075,0.409,0.577,0.645,0.95,0.54c5.889-1.666,11.777-3.332,17.666-4.998
									c0.434-0.123,0.606-0.535,0.54-0.95c-0.469-2.934-0.993-5.865-1.635-8.766c-0.313-1.417-0.645-5.515-2.453-6.036
									c-0.957-0.276-1.366,1.215-0.411,1.49c0.898,0.259,1.618,6.086,1.788,6.933c0.436,2.166,0.925,4.368,1.184,6.564
									c-0.085-0.716,1.046-0.442-0.279-0.483c-0.836-0.026-2.026,0.573-2.831,0.801c-2.736,0.774-5.472,1.548-8.207,2.322
									c-1.768,0.5-3.942,0.777-5.597,1.583c1.093-0.532,0.328,1.195,0.64-0.149c0.185-0.797-0.45-2.468-0.592-3.246
									c-0.802-4.398-1.605-8.796-2.407-13.194c-0.248,0.326-0.497,0.652-0.745,0.978c5.75-0.694,11.501-1.388,17.251-2.082
									C433.921,315.814,433.933,314.268,432.946,314.387z"/>
							</g>
						</g>
						<g>
							<g>
								<path style="fill:#6DD6B4;" d="M434.257,311.327l22.294-7.105c0,0,4.046-1.383,4.903,1.477s4.748,11.851,9.52,35.465
									c0.192,0.948,5.246,19.338-7.72,8.775c-1.972-1.607-17.149-17.384-17.149-17.384s-7.229,0.414-9.535,0.265
									c-1.191-0.077-1.551-0.052-2.365-4.148c-1.012-5.089-2.456-11.258-2.364-15.899
									C431.852,312.189,432.326,311.943,434.257,311.327z"/>
							</g>
							<g>
								<g>
									<g>
										<path d="M452.899,329.178c-1.104,2.269-2.209,4.538-3.313,6.807c-0.655,1.345,1.357,2.53,2.015,1.178
											c1.104-2.269,2.209-4.538,3.313-6.807C455.569,329.011,453.557,327.827,452.899,329.178L452.899,329.178z"/>
									</g>
								</g>
								<g>
									<g>
										<path d="M458.675,333.659c-1.454,2.698-2.908,5.396-4.362,8.095c-0.712,1.322,1.302,2.502,2.015,1.178
											c1.454-2.698,2.908-5.396,4.362-8.095C461.402,333.515,459.388,332.335,458.675,333.659L458.675,333.659z"/>
									</g>
								</g>
							</g>
							<path style="fill:#FFFFFF;" d="M439.811,324.583c2.532,2.259,6.416,2.037,8.674-0.496c2.259-2.532,2.037-6.416-0.495-8.674
								c-2.532-2.259-6.416-2.037-8.674,0.496C437.057,318.441,437.279,322.325,439.811,324.583z"/>
						</g>
					</g>
					<g>
						<g>
							<path style="fill:#644DBD;" d="M337.962,243.649c0,0-1.595,52.68,8.009,81.14c9.604,28.459,23.163,29.024,42.653,22.245
								c19.491-6.779,26.103-8.738,26.103-8.738l-4.329-20.639c0,0-14.25,4.119-23.379,2.342c-9.13-1.777,0.09-51.492,0-59.118
								c-0.09-7.627,0.475-19.559-5.74-25.033C375.066,230.373,336.449,236.587,337.962,243.649z"/>
						</g>
						<g>
							<g>
								<g>
									<path d="M337.337,243.649c-0.621,21.098,0.234,42.671,3.767,63.492c2.145,12.643,5.488,27.34,14.471,37.036
										c6.881,7.427,16.307,8.048,25.662,5.748c11.44-2.813,22.362-7.663,33.657-11.027c0.769-0.229,0.442-1.436-0.332-1.205
										c-8.477,2.525-16.823,5.531-25.18,8.418c-10.314,3.563-22.479,6.874-31.491-1.385
										c-10.026-9.188-13.396-25.039-15.581-37.918c-2.232-13.153-3.151-26.533-3.583-39.856
										c-0.252-7.759-0.368-15.542-0.139-23.304C338.611,242.844,337.361,242.845,337.337,243.649L337.337,243.649z"/>
								</g>
							</g>
							<g>
								<g>
									<path d="M366.532,247.604c0.57,9.831,10.967,16.85,18.953,20.336c0.73,0.319,1.367-0.758,0.631-1.079
										c-7.535-3.288-17.791-9.903-18.334-19.256C367.736,246.804,366.485,246.799,366.532,247.604L366.532,247.604z"/>
								</g>
							</g>
						</g>
						<g>
							<path style="fill:#FFFFFF;" d="M416.254,309.75c1.088-0.161,2.11,0.598,2.271,1.686l4.143,28.053
								c0.161,1.088-0.598,2.11-1.686,2.271l-7.779,1.149c-1.088,0.161-2.11-0.598-2.271-1.686l-4.143-28.054
								c-0.161-1.088,0.598-2.11,1.686-2.271L416.254,309.75z"/>
							<g>
								<path style="fill:#644DBD;" d="M416.254,310.375c2.619,0.313,2.447,6.502,2.7,8.212c0.606,4.102,1.212,8.204,1.818,12.307
									c0.338,2.29,1.709,6.083,1.236,8.371c-0.535,2.587-7.808,3.781-9.649,2.383c-1.779-1.351-1.547-5.483-1.856-7.576
									c-0.606-4.102-1.212-8.204-1.818-12.307c-0.341-2.31-1.712-6.07-1.236-8.371c0.626-3.029,6.464-2.671,8.972-3.041
									c0.793-0.117,0.456-1.322-0.332-1.205c-2.441,0.361-6.873,0.036-8.885,1.63c-1.475,1.169-0.956,2.969-0.723,4.547
									c1.171,7.932,2.343,15.863,3.514,23.795c0.247,1.671,0.246,3.557,2.089,4.28c1.947,0.764,7.23-0.269,8.989-1.025
									c4.435-1.908,1.01-11.103,0.488-14.642c-0.669-4.533-1.339-9.067-2.009-13.6c-0.363-2.458-0.332-4.653-3.296-5.007
									C415.457,309.03,415.464,310.28,416.254,310.375z"/>
							</g>
						</g>
					</g>
				</g>
			</g>
			<g>
				<g>
					<g>
						<path style="fill:#FFFFFF;" d="M383.258,183.482c0,0,6.214,55.929,3.248,62.285c-2.966,6.356-24.716,11.016-46.043,9.463
							s-26.693-9.18-30.789-24.999c-4.096-15.818-3.955-40.393-1.061-59.884c2.893-19.49,17.761-26.835,17.761-26.835
							s19.587-9.18,48.263-3.037c28.677,6.144,53.252,29.209,58.972,43.205c5.72,13.996,4.025,33.275,1.695,41.325
							c-2.33,8.05-7.225,10.029-14.311,10.841c-7.086,0.811-12.594-3.214-16.831-19.527c-4.237-16.313-11.732-32.68-35.208-39.193"
							/>
						<g>
							<path style="fill:#020202;" d="M382.633,183.482c1.023,9.224,1.9,18.468,2.652,27.718c0.558,6.859,1.06,13.73,1.292,20.609
								c0.133,3.944,1.059,9.791-0.573,13.547c-1.519,3.496-7.011,5.12-10.231,6.103c-5.463,1.667-11.194,2.53-16.871,3.019
								c-10.987,0.947-24.086,1.416-34.364-3.3c-16.349-7.502-17.063-32.64-17.366-47.849c-0.382-19.17-0.94-43.915,15.79-56.825
								c7.672-5.92,19.05-7.063,28.313-7.445c23.255-0.961,45.484,7.418,63.207,22.306c6.452,5.419,12.681,11.702,16.845,19.094
								c4.977,8.834,5.852,19.769,5.447,29.713c-0.415,10.176-1.556,22.564-13.539,24.729c-11.987,2.166-15.828-9.086-18.472-18.747
								c-2.339-8.548-5.312-16.932-10.878-23.966c-6.319-7.985-15.107-12.845-24.767-15.663c-0.774-0.226-1.104,0.98-0.332,1.205
								c11.925,3.479,21.937,10.244,28.096,21.184c5.186,9.21,6.002,19.915,10.848,29.179c2.797,5.347,7.014,8.91,13.262,8.379
								c8.34-0.71,13.379-4.891,15.355-12.993c4.323-17.726,2.03-37.848-9.892-52.03c-14.666-17.447-36.334-29.765-58.92-32.845
								c-12.984-1.771-29.488-1.688-41.603,4.436c-14.965,7.564-18.196,25.111-19.392,40.166
								c-0.992,12.489-1.054,25.221,0.69,37.647c1.144,8.149,2.948,17.306,7.823,24.147c4.544,6.378,11.831,9.025,19.31,10.184
								c12.275,1.902,25.546,1.363,37.644-1.437c5.549-1.284,14.46-3.201,15.598-9.862c1.141-6.674,0.204-14.052-0.206-20.743
								c-0.812-13.243-2.055-26.472-3.516-39.658C383.795,182.692,382.544,182.683,382.633,183.482L382.633,183.482z"/>
						</g>
					</g>
					<g>
						<path style="fill:#6DD6B4;" d="M349.079,248.604c-17.266,0.1-28.198-2.978-34.93-6.245
							c4.329,7.725,11.427,11.787,26.315,12.872c21.327,1.554,43.077-3.107,46.043-9.463c0.22-0.473,0.389-1.225,0.514-2.204
							C379.698,245.991,367.678,248.496,349.079,248.604z"/>
						<g>
							<path style="fill:#6DD6B4;" d="M408.818,228.778c3.416,5.989,7.443,7.61,12.174,7.068c6.595-0.755,11.289-2.528,13.787-9.26
								C421.719,229.764,413.523,229.574,408.818,228.778z"/>
						</g>
					</g>
					<g>
						<g>
							<path style="fill:#020202;" d="M382.633,183.482c1.023,9.224,1.9,18.468,2.652,27.718c0.558,6.859,1.06,13.73,1.292,20.609
								c0.133,3.944,1.059,9.791-0.573,13.547c-1.519,3.496-7.011,5.12-10.231,6.103c-5.463,1.667-11.194,2.53-16.871,3.019
								c-10.987,0.947-24.086,1.416-34.364-3.3c-16.349-7.502-17.063-32.64-17.366-47.849c-0.382-19.17-0.94-43.915,15.79-56.825
								c7.672-5.92,19.05-7.063,28.313-7.445c23.255-0.961,45.484,7.418,63.207,22.306c6.452,5.419,12.681,11.702,16.845,19.094
								c4.977,8.834,5.852,19.769,5.447,29.713c-0.415,10.176-1.556,22.564-13.539,24.729c-11.987,2.166-15.828-9.086-18.472-18.747
								c-2.339-8.548-5.312-16.932-10.878-23.966c-6.319-7.985-15.107-12.845-24.767-15.663c-0.774-0.226-1.104,0.98-0.332,1.205
								c11.925,3.479,21.937,10.244,28.096,21.184c5.186,9.21,6.002,19.915,10.848,29.179c2.797,5.347,7.014,8.91,13.262,8.379
								c8.34-0.71,13.379-4.891,15.355-12.993c4.323-17.726,2.03-37.848-9.892-52.03c-14.666-17.447-36.334-29.765-58.92-32.845
								c-12.984-1.771-29.488-1.688-41.603,4.436c-14.965,7.564-18.196,25.111-19.392,40.166
								c-0.992,12.489-1.054,25.221,0.69,37.647c1.144,8.149,2.948,17.306,7.823,24.147c4.544,6.378,11.831,9.025,19.31,10.184
								c12.275,1.902,25.546,1.363,37.644-1.437c5.549-1.284,14.46-3.201,15.598-9.862c1.141-6.674,0.204-14.052-0.206-20.743
								c-0.812-13.243-2.055-26.472-3.516-39.658C383.795,182.692,382.544,182.683,382.633,183.482L382.633,183.482z"/>
						</g>
					</g>
				</g>
				<g>
					<g>
						<path style="fill:#6DD6B4;" d="M352.682,145.363c0.164-0.794,0.794-1.002,1.4-0.463l5.722,5.098
							c0.605,0.539,0.471,1.189-0.299,1.444l-7.276,2.407c-0.77,0.255-1.265-0.187-1.101-0.981L352.682,145.363z"/>
					</g>
					<g>
						<path style="fill:#6DD6B4;" d="M319.921,160.816c0.164-0.794,0.794-1.002,1.4-0.463l5.723,5.098
							c0.605,0.539,0.471,1.189-0.299,1.444l-7.276,2.407c-0.77,0.255-1.265-0.187-1.101-0.981L319.921,160.816z"/>
					</g>
					<g>
						<path style="fill:#6DD6B4;" d="M262.72,117.779c0.164-0.794,0.794-1.002,1.4-0.463l5.723,5.098
							c0.605,0.539,0.471,1.189-0.299,1.444l-7.276,2.407c-0.77,0.255-1.265-0.187-1.101-0.981L262.72,117.779z"/>
					</g>
					<g>
						<path style="fill:#6DD6B4;" d="M267.546,138.586c0.76-0.282,1.271,0.142,1.135,0.941l-1.286,7.555
							c-0.136,0.799-0.758,1.03-1.382,0.512l-5.9-4.891c-0.624-0.518-0.513-1.172,0.247-1.453L267.546,138.586z"/>
					</g>
					<g>
						<path style="fill:#6DD6B4;" d="M286.115,142.874c0.76-0.282,1.271,0.142,1.135,0.941l-1.286,7.555
							c-0.136,0.799-0.758,1.03-1.382,0.512l-5.9-4.892c-0.624-0.518-0.513-1.171,0.247-1.453L286.115,142.874z"/>
					</g>
					<g>
						<path style="fill:#6DD6B4;" d="M292.763,166.18c0.806,0.088,1.073,0.695,0.594,1.349l-4.529,6.183
							c-0.479,0.654-1.139,0.582-1.466-0.16l-3.09-7.013c-0.327-0.742,0.065-1.277,0.871-1.189L292.763,166.18z"/>
					</g>
					<g>
						<path style="fill:#6DD6B4;" d="M311.023,154.851c0.806,0.088,1.074,0.695,0.594,1.349l-4.528,6.183
							c-0.479,0.654-1.139,0.582-1.466-0.16l-3.09-7.013c-0.327-0.742,0.065-1.277,0.871-1.189L311.023,154.851z"/>
					</g>
					<g>
						<path style="fill:#6DD6B4;" d="M346.669,168.986c0.479-0.654,1.139-0.582,1.466,0.16l3.09,7.013
							c0.327,0.742-0.065,1.277-0.871,1.189l-7.619-0.831c-0.806-0.088-1.074-0.695-0.595-1.349L346.669,168.986z"/>
					</g>
					<g>
						<path style="fill:#6DD6B4;" d="M318.697,186.387c0.136-0.799,0.758-1.03,1.382-0.512l5.9,4.891
							c0.624,0.518,0.513,1.172-0.247,1.453l-7.186,2.664c-0.76,0.282-1.271-0.142-1.135-0.941L318.697,186.387z"/>
					</g>
					<g>
						<path style="fill:#6DD6B4;" d="M319.883,215.648c0.533-0.611,1.184-0.484,1.447,0.283l2.488,7.248
							c0.263,0.767-0.172,1.267-0.968,1.112l-7.522-1.469c-0.796-0.155-1.011-0.783-0.479-1.394L319.883,215.648z"/>
					</g>
					<g>
						<path style="fill:#6DD6B4;" d="M337.713,199.175c0.405-0.702,1.069-0.702,1.474,0l3.832,6.637
							c0.405,0.702,0.074,1.277-0.737,1.277h-7.664c-0.811,0-1.143-0.574-0.737-1.277L337.713,199.175z"/>
					</g>
					<g>
						<path style="fill:#6DD6B4;" d="M359.964,185.587c0.405-0.702,1.069-0.702,1.474,0l3.832,6.637
							c0.405,0.702,0.074,1.277-0.737,1.277l-7.664,0c-0.811,0-1.143-0.574-0.737-1.277L359.964,185.587z"/>
					</g>
					<g>
						<path style="fill:#6DD6B4;" d="M370.98,161.871c0.405-0.702,1.069-0.702,1.474,0l3.832,6.637
							c0.405,0.702,0.074,1.277-0.737,1.277h-7.664c-0.811,0-1.143-0.575-0.737-1.277L370.98,161.871z"/>
					</g>
					<g>
						<path style="fill:#6DD6B4;" d="M391.6,149.866c0.405-0.702,1.069-0.702,1.474,0l3.832,6.637
							c0.406,0.702,0.074,1.277-0.737,1.277l-7.664,0c-0.811,0-1.142-0.575-0.737-1.277L391.6,149.866z"/>
					</g>
					<g>
						<path style="fill:#6DD6B4;" d="M391.76,177.454c-0.137-0.799,0.373-1.223,1.134-0.943l7.19,2.653
							c0.761,0.281,0.873,0.935,0.25,1.453l-5.892,4.9c-0.624,0.519-1.246,0.289-1.383-0.51L391.76,177.454z"/>
					</g>
					<g>
						<path style="fill:#6DD6B4;" d="M417.324,182.165c-0.137-0.799,0.373-1.223,1.134-0.943l7.19,2.653
							c0.761,0.281,0.873,0.935,0.25,1.453l-5.893,4.9c-0.624,0.518-1.246,0.289-1.383-0.51L417.324,182.165z"/>
					</g>
					<g>
						<path style="fill:#6DD6B4;" d="M406.731,201.374c-0.137-0.799,0.373-1.223,1.134-0.943l7.19,2.653
							c0.761,0.281,0.873,0.935,0.25,1.453l-5.892,4.9c-0.624,0.518-1.246,0.289-1.383-0.51L406.731,201.374z"/>
					</g>
					<g>
						<path style="fill:#6DD6B4;" d="M426.767,215.288c0.652-0.483,1.26-0.218,1.352,0.587l0.871,7.614
							c0.092,0.806-0.441,1.2-1.185,0.877l-7.03-3.053c-0.744-0.323-0.819-0.982-0.167-1.465L426.767,215.288z"/>
					</g>
					<g>
						<path style="fill:#6DD6B4;" d="M373.225,203.904c0.303-0.752,0.96-0.845,1.46-0.207l4.726,6.033
							c0.5,0.638,0.252,1.254-0.551,1.368l-7.588,1.077c-0.803,0.114-1.212-0.408-0.909-1.161L373.225,203.904z"/>
					</g>
					<g>
						<path style="fill:#6DD6B4;" d="M367.542,231.148c0.303-0.752,0.96-0.845,1.46-0.207l4.726,6.033
							c0.5,0.638,0.252,1.254-0.551,1.368l-7.588,1.077c-0.803,0.114-1.212-0.408-0.909-1.161L367.542,231.148z"/>
					</g>
					<g>
						<path style="fill:#6DD6B4;" d="M352.041,216.83c0.533-0.611,1.184-0.484,1.447,0.283l2.488,7.248
							c0.263,0.767-0.172,1.267-0.968,1.112l-7.522-1.469c-0.796-0.155-1.011-0.783-0.479-1.394L352.041,216.83z"/>
					</g>
					<g>
						<path style="fill:#6DD6B4;" d="M333.304,234.747c0.436-0.684,1.098-0.655,1.473,0.064l3.54,6.797
							c0.375,0.719,0.018,1.279-0.792,1.243l-7.656-0.333c-0.81-0.035-1.117-0.624-0.681-1.308L333.304,234.747z"/>
					</g>
					<ellipse style="fill:#6DD6B4;" cx="334.542" cy="142.03" rx="9.774" ry="9.11"/>
				</g>
			</g>
			<g>
				<g>
					<path style="fill:#644DBD;" d="M341.27,126.325c0,0,2.613-0.253,3.704-1.396c1.091-1.142-0.573-8.482-1.394-8.178
						C342.759,117.055,341.318,126.054,341.27,126.325z"/>
					<g>
						<path style="fill:#FFFFFF;" d="M341.223,126.889c1.921-2.286,3.039-5.257,2.9-8.456l-0.603-13.902
							c-0.294-6.788-6.089-12.102-12.878-11.808l-10.211,0.443c-6.788,0.294-12.102,6.089-11.807,12.878l0.603,13.902
							c0.294,6.788,6.089,12.102,12.878,11.807l3.917-0.17l0.335,7.726c0.157,3.614,3.242,6.442,6.855,6.286l2.307-0.1
							c3.614-0.157,6.442-3.242,6.286-6.855l-0.47-10.846C341.32,127.485,341.278,127.185,341.223,126.889z"/>
						<g>
							<path d="M341.763,127.204c3.733-5.018,2.916-10.368,2.662-16.219c-0.224-5.164,0.119-10.416-3.589-14.544
								c-4.067-4.528-9.267-4.384-14.823-4.143c-5.377,0.233-10.602,0.139-14.572,4.439c-3.835,4.155-3.451,9.103-3.226,14.299
								c0.217,4.993-0.389,10.971,2.433,15.368c1.459,2.274,3.653,4.063,6.157,5.069c1.491,0.599,3.031,0.849,4.628,0.897
								c1.025,0.031,3.467-0.591,4.298-0.15c-0.796-0.423-0.247,0.314-0.248,1.366c-0.001,1.492,0.099,3.027,0.196,4.516
								c0.153,2.354,0.555,4.509,2.367,6.206c3.885,3.639,11.906,2.269,13.89-2.779c1.583-4.028,0.423-10.451-0.087-14.64
								c-0.096-0.788-1.347-0.798-1.25,0c0.255,2.092,0.254,4.223,0.345,6.328c0.1,2.297,0.927,6.853-0.647,8.823
								c-4.131,5.173-12.377,3.219-13.341-3.303c-0.343-2.323-0.208-4.806-0.31-7.154c-0.014-0.326-0.275-0.64-0.625-0.625
								c-5.455,0.236-10.99,0.032-14.294-5.184c-2.154-3.402-1.945-7.441-2.113-11.3c-0.12-2.777-0.411-5.605-0.363-8.385
								c0.12-7.088,4.928-11.764,11.871-12.328c9.071-0.737,20.611-1.176,21.777,10.861c0.655,6.765,2.01,16.271-2.216,21.952
								C340.203,127.219,341.288,127.843,341.763,127.204z"/>
						</g>
					</g>
				</g>
				<path style="fill:#644DBD;" d="M329.3,94.327c0,0-2.182,4.663-8.113,7.602c-5.931,2.939-13.557,5.753-17.25,0.748
					c-3.693-5.005,0.831-8.28,0.831-8.28s-4.963-6.837-1.742-15.021c3.221-8.185,16.963-14.243,27.664-10.238
					c10.702,4.006,11.602,11.019,11.602,11.019s4.668-2.288,11.805,4.256c7.137,6.544,4.255,21.369,1.156,26.668
					c-1.526,2.609-8.782,12.796-10.42,13.96c-0.996,0.708-0.242-2.457-0.168-5.093c0.047-1.698-0.688-3.213-0.688-3.213l0.043-9.229
					C344.021,107.505,330.945,107.069,329.3,94.327z"/>
				<g>
					
						<ellipse transform="matrix(0.1598 -0.9872 0.9872 0.1598 182.3669 440.3113)" style="fill:#FFFFFF;" cx="349.832" cy="113.029" rx="8.563" ry="8.562"/>
					<g>
						<g>
							<path d="M355.896,108.013c5.924,7.977-4.697,17.201-11.826,10.389c-0.582-0.556-1.467,0.327-0.884,0.884
								c8.122,7.762,20.594-2.741,13.789-11.904C356.501,106.744,355.416,107.366,355.896,108.013L355.896,108.013z"/>
						</g>
					</g>
					<g>
						<g>
							<path style="fill:#020202;" d="M345.957,114.45c-0.079-0.769,0.023-1.592,0.289-2.316c0.672-1.828,2.41-2.316,4.213-2.229
								c1.023,0.049,1.021-1.542,0-1.591c-2.248-0.108-4.472,0.634-5.493,2.778c-0.481,1.01-0.715,2.238-0.6,3.358
								C344.47,115.458,346.063,115.469,345.957,114.45L345.957,114.45z"/>
						</g>
					</g>
				</g>
				<g>
					<g>
						<path style="fill:#0C0C0C;" d="M329.193,108.278c0.055,1.271-0.931,2.346-2.202,2.402c-1.271,0.055-2.346-0.931-2.402-2.202
							c-0.055-1.271,0.931-2.346,2.202-2.401C328.062,106.021,329.137,107.007,329.193,108.278z"/>
						<path style="fill:#0C0C0C;" d="M314.109,108.594c0.047,1.085-0.794,2.003-1.879,2.05c-1.085,0.047-2.003-0.794-2.05-1.88
							c-0.047-1.085,0.794-2.003,1.879-2.05C313.144,106.668,314.062,107.509,314.109,108.594z"/>
					</g>
					<g>
						<path style="fill:#FFFDFD;" d="M316.715,117.916c0,0,1.303,3.32,3.758,3.446c2.455,0.125,4.255-2.668,4.295-4.788
							L316.715,117.916z"/>
						<g>
							<path style="fill:#0C0C0C;" d="M316.121,118.08c0.711,1.756,2.141,3.69,4.172,3.877c2.936,0.27,4.924-2.771,5.091-5.383
								c0.028-0.436-0.414-0.655-0.78-0.594c-2.684,0.447-5.369,0.895-8.053,1.342c-0.78,0.13-0.449,1.317,0.327,1.188
								c2.684-0.447,5.369-0.895,8.053-1.342c-0.26-0.198-0.52-0.396-0.779-0.594c-0.133,2.089-2.028,4.993-4.46,3.959
								c-1.107-0.471-2.026-1.895-2.384-2.78C317.015,117.027,315.823,117.344,316.121,118.08z"/>
						</g>
					</g>
					<polygon style="fill:#FF84B5;" points="317.932,106.46 318.742,114.277 314.901,112.159 					"/>
					<g>
						
							<ellipse transform="matrix(0.6808 -0.7325 0.7325 0.6808 20.4967 280.3151)" style="fill:#FF84B5;" cx="331.838" cy="116.643" rx="5.727" ry="5.727"/>
						<path style="fill:#FF84B5;" d="M310.567,113.439c-0.348,0.015-0.683,0.075-1.005,0.166l0.257,5.934
							c0.038,0.887,0.173,1.747,0.389,2.574c0.241,0.03,0.486,0.046,0.736,0.035c2.405-0.104,4.27-2.138,4.166-4.543
							C315.006,115.2,312.972,113.335,310.567,113.439z"/>
					</g>
				</g>
			</g>
		</g>
	</g>
</g>
</svg>
